<svg id="Layer_1" data-name="Layer 1" xmlns="http://www.w3.org/2000/svg" viewBox="0 0 618.93 191.66">
  <defs>
    <style>
      .cls-1 {
        fill: #1d1765;
      }
    </style>
  </defs>
  <title>wisetech-global-logo</title>
  <g>
    <path class="cls-1" d="M209.13,23.73l11.29.11,11.8,36.75,13.57-36.75h11l13.36,36.75,12.22-36.75h11.28l-18,51.77H264.94l-13.77-37-14,37H226.32Z" transform="translate(0)"/>
    <path class="cls-1" d="M304.6,1a7.18,7.18,0,0,1,7.46,7.46,7.46,7.46,0,0,1-14.91,0A7.18,7.18,0,0,1,304.6,1ZM299,23.84H310.2V75.61H299Z" transform="translate(0)"/>
    <path class="cls-1" d="M315.45,64.94l9.94-5.38c3,4.87,7.45,7.45,13.66,7.45,6.42,0,9.74-3.1,9.74-6.73,0-4.24-6.22-5.17-12.84-6.62-8.8-1.76-18.12-4.66-18.12-15.33,0-8.18,7.87-15.74,20.19-15.63,10,0,16.77,3.72,21.12,10l-9.32,5.07c-2.48-3.72-6.31-5.9-11.8-5.9-6.11,0-9,2.8-9,6.22,0,3.72,4.45,4.55,12.32,6.31,8.7,1.87,18.54,4.76,18.54,15.64,0,7.76-6.94,16.67-21.33,16.56C327.35,76.64,319.9,72.61,315.45,64.94Z" transform="translate(0)"/>
    <path class="cls-1" d="M364.09,49.93c0-15.22,11.7-27.13,26.92-27.13s26.62,11.08,26.62,26.4v4.35H374.76c1.45,8,7.66,13.26,16.67,13.26a16.25,16.25,0,0,0,15.12-9.32l9.11,5.07c-4.56,8.49-12.74,14.08-24.23,14.08C375.07,76.64,364.09,64.94,364.09,49.93Zm11.19-5.8h31.06c-1.66-7.45-7.35-11.6-15.33-11.6A16.09,16.09,0,0,0,375.28,44.13Z" transform="translate(0)"/>
    <path class="cls-1" d="M420.36,23.84h8.8V11.62l11.19-6.11V23.84h11v9.94h-11v20.6c0,9.32,1.45,10.77,11,10.77V75.61h-1.65c-15.74,0-20.51-5-20.51-21.12V33.78h-8.8Z" transform="translate(0)"/>
    <path class="cls-1" d="M454.44,49.93c0-15.22,11.7-27.13,26.92-27.13S508,33.88,508,49.2v4.35H465.11c1.45,8,7.66,13.26,16.67,13.26a16.23,16.23,0,0,0,15.11-9.32L506,62.56c-4.56,8.49-12.74,14.08-24.23,14.08C465.42,76.64,454.44,64.94,454.44,49.93Zm11.18-5.8h31.07c-1.66-7.45-7.35-11.6-15.33-11.6A16.11,16.11,0,0,0,465.62,44.13Z" transform="translate(0)"/>
    <path class="cls-1" d="M512.83,49.72a26.63,26.63,0,0,1,27-26.92c11.49,0,20.6,6.52,24.54,15.84l-9.94,4.25a15.43,15.43,0,0,0-14.6-9.73c-9.22,0-16.15,7.35-16.15,16.56a16.31,16.31,0,0,0,16.36,16.57c7,0,12.22-4.35,14.6-10.15l10,4.25c-4.14,9.52-12.74,16.25-24.85,16.25A26.7,26.7,0,0,1,512.83,49.72Z" transform="translate(0)"/>
    <path class="cls-1" d="M571,0h11V30.36a19.9,19.9,0,0,1,15.95-7.56c13.05,0,21,8.49,21,22.57V75.61H607.64V46.41c0-8.6-4.14-14-12.53-14-7.35,0-13,5.59-13,14.7V75.61H571Z" transform="translate(0)"/>
  </g>
  <path class="cls-1" d="M0,136.19H15.13V90.79H0Zm60.53,30.29H75.66v-45.4H60.53Zm90.79-75.69v45.4h15.14V90.79ZM0,75.66H15.13V0H0Zm30.26,0H45.4V0H30.26Zm30.27,0H75.66V0H60.53Zm30.26,90.83h15.14V90.83H90.79Zm30.27-90.71h15.13V.12H121.06Z" transform="translate(0)"/>
  <g>
    <path class="cls-1" d="M211.87,140.56c0-16.58,12.34-26.95,25.92-26.95A22,22,0,0,1,255,121.7v-7h11.1v50.58c0,15.24-9.54,26.43-26.13,26.43-13,0-21.76-6.22-25.7-14.61l10.26-4.87c2.59,5.7,7.57,9.32,15.44,9.32,9.44,0,15.14-6.94,15.14-15.85v-6.53a22.12,22.12,0,0,1-17.42,8.39C224.52,167.51,211.87,157,211.87,140.56Zm43.75-.1c0-9.23-7-16.79-16.38-16.79-9.23,0-16.38,7.36-16.38,16.79s7.15,16.89,16.38,16.89C248.67,157.35,255.62,149.79,255.62,140.46Z" transform="translate(0)"/>
    <path class="cls-1" d="M275.86,90.81H287v75.66H275.86Z" transform="translate(0)"/>
    <path class="cls-1" d="M294.25,140.56a26.9,26.9,0,1,1,26.85,26.95A26.68,26.68,0,0,1,294.25,140.56Zm42.81,0c0-9.12-7.05-16.58-16-16.58s-15.86,7.46-15.86,16.58,6.94,16.59,15.86,16.59S337.06,149.68,337.06,140.56Z" transform="translate(0)"/>
    <path class="cls-1" d="M366.21,159.43v7H355.33V90.81h11v30.78a22,22,0,0,1,17.2-8c13.58,0,25.81,10.37,25.81,27s-12.54,26.95-25.7,26.95C376.68,167.51,370.05,164.51,366.21,159.43Zm32.14-19c0-9.43-7.16-16.79-16.38-16.79s-16.27,7.56-16.27,16.79,6.94,16.89,16.27,16.89S398.35,149.89,398.35,140.46Z" transform="translate(0)"/>
    <path class="cls-1" d="M414.11,140.56c0-16.58,12.33-26.95,25.91-26.95,6.84,0,13.37,3,17.21,7.78v-6.74h11.09v51.82H457.23v-7.15a22,22,0,0,1-17.31,8.19C426.75,167.51,414.11,157,414.11,140.56Zm43.74-.1c0-9.23-7-16.79-16.38-16.79-9.22,0-16.37,7.36-16.37,16.79s7.15,16.89,16.37,16.89C450.9,157.35,457.85,149.79,457.85,140.46Z" transform="translate(0)"/>
    <path class="cls-1" d="M478,90.81h11.09v75.66H478Z" transform="translate(0)"/>
  </g>
  <path class="cls-1" d="M0,136.19H15.13V90.79H0Zm60.53,30.29H75.66v-45.4H60.53Zm90.79-75.69v45.4h15.14V90.79ZM0,75.66H15.13V0H0Zm30.26,0H45.4V0H30.26Zm30.27,0H75.66V0H60.53Zm30.26,90.83h15.14V90.83H90.79Zm30.27-90.71h15.13V.12H121.06Z" transform="translate(0)"/>
</svg>
